<?xml version="1.0" encoding="UTF-8"?>
<svg width="260px" height="260px" viewBox="0 0 260 260" version="1.1" xmlns="http://www.w3.org/2000/svg" xmlns:xlink="http://www.w3.org/1999/xlink">
    <!-- Generator: Sketch 60.1 (88133) - https://sketch.com -->
    <title>Favicon 3</title>
    <desc>Created with Sketch.</desc>
    <g id="Favicon-3" stroke="none" stroke-width="1" fill="none" fill-rule="evenodd">
        <rect fill="#F07855" x="0" y="0" width="260" height="260"></rect>
        <g id="Group" transform="translate(23.000000, 55.000000)" fill="#FFFFFF">
            <g id="Graphics/small-logo-dark">
                <path d="M107.54301,149.750246 L106.301712,149.750246 C78.3284794,149.356593 51.5295774,139.055889 31.2032086,120.884606 C11.484698,101.442272 0.496445813,75.537334 0.543010013,48.6031657 L0.543010013,44.8482857 L4.63944036,44.8482857 C30.7150775,44.8604545 55.9647845,53.4946526 76.0140514,69.2550059 L74.8968836,79.463586 C57.0347451,63.6143732 33.7131053,54.404241 9.23224142,53.5314458 C10.4011342,76.7114396 20.3083817,98.7303762 37.161437,115.604306 C55.0664455,131.390841 78.3622538,140.590772 102.826079,141.536446" id="Path"></path>
                <path d="M111.236369,141.537447 C135.886036,140.431425 159.291384,131.019227 177.180869,115.018607 C194.016178,98.3245795 203.96313,76.5192846 205.229096,53.5324462 C180.551334,54.5226147 157.104572,63.9514667 139.284597,80.0512864 L136.542103,71.1334463 C156.920097,54.5714118 182.918658,45.4151577 209.841471,45.3186461 L213.830553,45.3186461 L213.830553,49.0735262 C213.911003,75.99137 202.921523,101.894123 183.164491,121.354967 C162.909429,139.39093 136.345838,149.210995 108.469686,149.750246 L102.143682,149.750246" id="Path"></path>
                <path d="M107,12.2758273 C90.3400532,29.4560722 80.7415251,51.6849743 79.9364597,74.951352 C80.6900366,98.2629798 90.2935373,120.545124 107,137.744467 C123.587286,120.494068 133.096255,98.2260221 133.814107,74.951352 C133.0777,51.715357 123.569228,29.4901731 107,12.2758273 L107,12.2758273 Z M107,149.268297 L104.006797,146.681315 C83.9094832,127.533864 72.3128317,101.881051 71.5804357,74.951352 C72.2021819,48.0799497 83.7165877,22.4537024 103.757364,3.33897946 L107,0.751997199 L109.993203,3.33897946 C130.181931,22.3908654 141.835216,48.0280921 142.544281,74.951352 C141.854248,101.912982 130.200501,127.593325 109.993203,146.681315 L107,149.268297 Z" id="Shape"></path>
            </g>
        </g>
    </g>
</svg>