<svg width="48" height="48" viewBox="0 0 48 48" fill="none" xmlns="http://www.w3.org/2000/svg">
<path d="M32.9991 11.293H33.9425C33.9425 10.9978 33.8043 10.7196 33.5691 10.5412C33.3339 10.3629 33.0287 10.3049 32.7445 10.3846L32.9991 11.293ZM32.9991 18.1993L33.1749 19.1262C33.6202 19.0418 33.9425 18.6526 33.9425 18.1993H32.9991ZM25.1089 13.5048L24.8543 12.5965C24.447 12.7106 24.1655 13.0819 24.1655 13.5048H25.1089ZM25.1089 31.0922L24.2063 31.3666C24.3423 31.8139 24.7852 32.0941 25.2476 32.0254C25.71 31.9567 26.0523 31.5597 26.0523 31.0922H25.1089ZM25.2233 31.6779H24.2799C24.2799 31.706 24.2811 31.7341 24.2836 31.762L25.2233 31.6779ZM25.2233 19.6739L25.0475 18.747C24.6022 18.8315 24.2799 19.2206 24.2799 19.6739H25.2233ZM32.0557 11.293V18.1993H33.9425V11.293H32.0557ZM25.3636 14.4132L33.2538 12.2013L32.7445 10.3846L24.8543 12.5965L25.3636 14.4132ZM26.0523 31.0922V13.5048H24.1655V31.0922H26.0523ZM20.2033 29.1043C22.3357 29.1043 23.8566 30.2161 24.2063 31.3666L26.0115 30.8179C25.3408 28.6111 22.8564 27.2175 20.2033 27.2175V29.1043ZM16.1153 31.9345C16.1153 31.256 16.4798 30.5698 17.2116 30.0209C17.9437 29.4718 18.9983 29.1043 20.2033 29.1043V27.2175C18.6295 27.2175 17.1684 27.6948 16.0795 28.5115C14.9903 29.3284 14.2285 30.529 14.2285 31.9345H16.1153ZM20.2033 34.7647C18.9983 34.7647 17.9437 34.3972 17.2116 33.8481C16.4798 33.2993 16.1153 32.613 16.1153 31.9345H14.2285C14.2285 33.3401 14.9903 34.5406 16.0795 35.3575C17.1684 36.1742 18.6295 36.6515 20.2033 36.6515V34.7647ZM24.2913 31.9345C24.2913 32.613 23.9268 33.2993 23.195 33.8481C22.4629 34.3972 21.4083 34.7647 20.2033 34.7647V36.6515C21.7771 36.6515 23.2382 36.1742 24.3271 35.3575C25.4163 34.5406 26.1781 33.3401 26.1781 31.9345H24.2913ZM24.2836 31.762C24.2887 31.8189 24.2913 31.8764 24.2913 31.9345H26.1781C26.1781 31.8201 26.173 31.7065 26.1629 31.5938L24.2836 31.762ZM24.2799 19.6739V31.6779H26.1667V19.6739H24.2799ZM32.8234 17.2725L25.0475 18.747L25.399 20.6008L33.1749 19.1262L32.8234 17.2725Z" fill="currentColor"/>
</svg>
