<svg width="48" height="48" viewBox="0 0 48 48" fill="none" xmlns="http://www.w3.org/2000/svg">
<path fill-rule="evenodd" clip-rule="evenodd" d="M13.3333 14.1333C13.0387 14.1333 12.8 14.3721 12.8 14.6667C12.8 14.9612 13.0387 15.2 13.3333 15.2C13.6278 15.2 13.8666 14.9612 13.8666 14.6667C13.8666 14.3721 13.6278 14.1333 13.3333 14.1333ZM15.4176 15.1237C15.2083 16.0823 14.3546 16.8 13.3333 16.8C12.1551 16.8 11.2 15.8449 11.2 14.6667C11.2 13.4885 12.1551 12.5333 13.3333 12.5333C14.2179 12.5333 15.404 12.9541 16.3685 13.822C17.2175 14.5861 17.9036 15.7039 18.0858 17.2H20.5333V14.1333C20.5333 13.6915 20.8915 13.3333 21.3333 13.3333C21.7751 13.3333 22.1333 13.6915 22.1333 14.1333V17.2H25.8666V14.1333C25.8666 13.6915 26.2248 13.3333 26.6666 13.3333C27.1084 13.3333 27.4666 13.6915 27.4666 14.1333V17.2H29.9142C30.0963 15.7039 30.7825 14.5861 31.6314 13.822C32.5959 12.9541 33.7821 12.5333 34.6666 12.5333C35.8449 12.5333 36.7999 13.4885 36.7999 14.6667C36.7999 15.8449 35.8449 16.8 34.6666 16.8C33.6453 16.8 32.7917 16.0823 32.5823 15.1237C31.9639 15.7325 31.4666 16.656 31.4666 18C31.4666 19.2507 31.8823 19.9276 32.4651 20.8767C32.5361 20.9924 32.6095 21.112 32.685 21.2373C33.4063 22.4336 34.1333 23.9086 34.1333 26.6666C34.1333 31.2582 31.0801 35.1346 26.8949 36.3802C25.9766 36.6536 25.0047 36.8 23.9999 36.8C22.9953 36.8 22.0233 36.6536 21.1051 36.3802C16.9199 35.1346 13.8666 31.2582 13.8666 26.6666C13.8666 23.9086 14.5935 22.4336 15.3149 21.2373C15.3904 21.112 15.4638 20.9924 15.5348 20.8767C16.1176 19.9276 16.5333 19.2507 16.5333 18C16.5333 16.656 16.036 15.7325 15.4176 15.1237ZM34.6666 14.1333C34.3721 14.1333 34.1333 14.3721 34.1333 14.6667C34.1333 14.9612 34.3721 15.2 34.6666 15.2C34.9611 15.2 35.1999 14.9612 35.1999 14.6667C35.1999 14.3721 34.9611 14.1333 34.6666 14.1333ZM29.9162 18.8H27.4666V34.4666C30.4525 33.1377 32.5333 30.1444 32.5333 26.6666C32.5333 24.2701 31.9269 23.0785 31.3149 22.0634C31.2462 21.9494 31.1754 21.8353 31.1039 21.7198C30.6095 20.9216 30.0782 20.0639 29.9162 18.8ZM25.8666 34.9954V18.8H22.1333V34.9954C22.7335 35.1293 23.3581 35.2 23.9999 35.2C24.6419 35.2 25.2665 35.1293 25.8666 34.9954ZM20.5333 34.4666V18.8H18.0837C17.9218 20.0639 17.3904 20.9216 16.896 21.7198C16.8245 21.8353 16.7538 21.9494 16.6851 22.0634C16.073 23.0785 15.4666 24.2701 15.4666 26.6666C15.4666 30.1444 17.5475 33.1377 20.5333 34.4666Z" fill="currentColor"/>
</svg>
